<svg xmlns="http://www.w3.org/2000/svg" aria-hidden="true" style="position:absolute;width:0;height:0;overflow:hidden">
  <defs>
    <symbol id="icon-behance" viewBox="0 0 32 28">
      <path d="M28.875 5.297h-7.984v1.937h7.984V5.297zm-3.937 6.656c-1.875 0-3.125 1.172-3.25 3.047h6.375c-.172-1.891-1.156-3.047-3.125-3.047zm.25 9.141c1.188 0 2.719-.641 3.094-1.859h3.453c-1.062 3.266-3.266 4.797-6.672 4.797-4.5 0-7.297-3.047-7.297-7.484 0-4.281 2.953-7.547 7.297-7.547 4.469 0 6.937 3.516 6.937 7.734 0 .25-.016.5-.031.734H21.688c0 2.281 1.203 3.625 3.5 3.625zm-20.86-.782h4.625c1.766 0 3.203-.625 3.203-2.609 0-2.016-1.203-2.812-3.109-2.812H4.328v5.422zm0-8.39h4.391c1.547 0 2.641-.672 2.641-2.344 0-1.813-1.406-2.25-2.969-2.25H4.329v4.594zM0 3.969h9.281c3.375 0 6.297.953 6.297 4.875 0 1.984-.922 3.266-2.688 4.109 2.422.688 3.594 2.516 3.594 4.984 0 4-3.359 5.719-6.937 5.719H0V3.968z"/>
    </symbol>
    <symbol id="icon-behance1" viewBox="0 0 20 20">
      <path d="M8.072 9.301s1.892-.147 1.892-2.459c0-2.315-1.548-3.441-3.51-3.441H0v12.926h6.454s3.941.129 3.941-3.816c-.001-.001.171-3.21-2.323-3.21zM2.844 5.697h3.61s.878 0 .878 1.344c0 1.346-.516 1.541-1.102 1.541H2.844V5.697zm3.427 8.332H2.844v-3.455h3.61s1.308-.018 1.308 1.775c0 1.512-.977 1.669-1.491 1.68zm9.378-7.341c-4.771 0-4.767 4.967-4.767 4.967s-.326 4.941 4.767 4.941c0 0 4.243.254 4.243-3.437H17.71s.072 1.391-1.988 1.391c0 0-2.184.152-2.184-2.25h6.423c.001-.001.709-5.612-4.312-5.612zm1.941 3.886h-4.074s.266-1.992 2.182-1.992 1.892 1.992 1.892 1.992zm.507-6.414H12.98v1.594h5.117V4.16z"/>
    </symbol>
    <symbol id="icon-youtube" viewBox="0 0 20 20">
      <path d="M10 2.3C.172 2.3 0 3.174 0 10s.172 7.7 10 7.7 10-.874 10-7.7-.172-7.7-10-7.7zm3.205 8.034-4.49 2.096c-.393.182-.715-.022-.715-.456V8.026c0-.433.322-.638.715-.456l4.49 2.096c.393.184.393.484 0 .668z"/>
    </symbol>
    <symbol id="icon-search" viewBox="0 0 24 24">
      <path d="M9.516 14.016q1.875 0 3.188-1.313t1.313-3.188-1.313-3.188-3.188-1.313-3.188 1.313-1.313 3.188 1.313 3.188 3.188 1.313zm6 0 4.969 4.969-1.5 1.5-4.969-4.969v-.797l-.281-.281q-1.781 1.547-4.219 1.547-2.719 0-4.617-1.875T3.001 9.516t1.898-4.617 4.617-1.898 4.594 1.898 1.875 4.617q0 .984-.469 2.227t-1.078 1.992l.281.281h.797z"/>
    </symbol>
    <symbol id="icon-facebook" viewBox="0 0 24 24">
      <path d="M21.984 12q0-2.063-.773-3.867t-2.156-3.188-3.188-2.156T12 2.016t-3.867.773-3.188 2.156-2.156 3.188T2.016 12q0 1.828.586 3.445t1.688 2.93 2.555 2.203 3.141 1.219V15H8.017v-3h1.969V9.516q0-.984.492-1.781t1.266-1.266T13.502 6h2.484v3h-1.969q-.422 0-.727.305t-.305.68v2.016h3v3h-3v6.938q1.922-.188 3.563-1.031t2.859-2.18 1.898-3.047.68-3.68z"/>
    </symbol>
    <symbol id="icon-twitter" viewBox="0 0 32 32">
      <path d="M32 7.075a12.941 12.941 0 0 1-3.769 1.031 6.601 6.601 0 0 0 2.887-3.631 13.21 13.21 0 0 1-4.169 1.594A6.565 6.565 0 0 0 22.155 4a6.563 6.563 0 0 0-6.563 6.563c0 .512.056 1.012.169 1.494A18.635 18.635 0 0 1 2.23 5.195a6.56 6.56 0 0 0-.887 3.3 6.557 6.557 0 0 0 2.919 5.463 6.565 6.565 0 0 1-2.975-.819v.081a6.565 6.565 0 0 0 5.269 6.437 6.574 6.574 0 0 1-2.968.112 6.588 6.588 0 0 0 6.131 4.563 13.17 13.17 0 0 1-9.725 2.719 18.568 18.568 0 0 0 10.069 2.95c12.075 0 18.681-10.006 18.681-18.681 0-.287-.006-.569-.019-.85A13.216 13.216 0 0 0 32 7.076z"/>
    </symbol>
    <symbol id="icon-pinterest" viewBox="0 0 32 32">
      <path d="M16 0C7.175 0 0 7.175 0 16s7.175 16 16 16 16-7.175 16-16S24.825 0 16 0zm0 29.863c-1.431 0-2.806-.219-4.106-.619.563-.919 1.412-2.431 1.725-3.631.169-.65.863-3.294.863-3.294.45.863 1.775 1.594 3.175 1.594 4.181 0 7.194-3.844 7.194-8.625 0-4.581-3.738-8.006-8.544-8.006-5.981 0-9.156 4.019-9.156 8.387 0 2.031 1.081 4.563 2.813 5.369.262.125.4.069.463-.188.044-.194.281-1.131.387-1.575a.427.427 0 0 0-.094-.4c-.575-.694-1.031-1.975-1.031-3.162 0-3.056 2.313-6.019 6.256-6.019 3.406 0 5.788 2.319 5.788 5.637 0 3.75-1.894 6.35-4.356 6.35-1.363 0-2.381-1.125-2.05-2.506.394-1.65 1.15-3.425 1.15-4.613 0-1.063-.569-1.95-1.756-1.95-1.394 0-2.506 1.438-2.506 3.369 0 1.225.412 2.056.412 2.056s-1.375 5.806-1.625 6.887c-.281 1.2-.169 2.881-.05 3.975-5.156-2.012-8.813-7.025-8.813-12.9 0-7.656 6.206-13.863 13.862-13.863s13.863 6.206 13.863 13.863c0 7.656-6.206 13.863-13.863 13.863z"/>
    </symbol>
  </defs>
</svg>
